<?xml version="1.0" encoding="iso-8859-1"?>
<!-- Generator: Adobe Illustrator 19.0.0, SVG Export Plug-In . SVG Version: 6.00 Build 0)  -->
<svg version="1.1" id="Layer_1" xmlns="http://www.w3.org/2000/svg" xmlns:xlink="http://www.w3.org/1999/xlink" x="0px" y="0px"
	 viewBox="0 0 512 512" style="enable-background:new 0 0 512 512;" xml:space="preserve">
<path style="fill:#8EC155;" d="M503.916,88.926c0,77.39-62.737,140.126-140.126,140.126h-64.674v-64.674
	c0-77.39,62.737-140.126,140.126-140.126h64.674V88.926z"/>
<path style="fill:#84AB4F;" d="M503.916,24.253v64.674c0,77.39-62.737,140.126-140.126,140.126h-61.326l29.642-29.642h12.82
	c71.436,0,129.347-57.911,129.347-129.347V24.253H503.916z"/>
<path style="fill:#AEEF66;" d="M105.095,320.674h32.337c41.671,0,75.453,33.781,75.453,75.453v32.337h-32.337
	c-41.671,0-75.453-33.781-75.453-75.453V320.674z"/>
<path style="fill:#8EC155;" d="M105.095,320.674h32.337c41.671,0,75.453,33.781,75.453,75.453v32.337h-4.735l-27.602-27.602v-4.735
	C180.547,354.455,146.766,320.674,105.095,320.674z"/>
<path style="fill:#FFBBA4;" d="M245.221,126.653c0,65.483-53.085,118.568-118.568,118.568S8.084,192.136,8.084,126.653
	S61.169,8.084,126.653,8.084S245.221,61.169,245.221,126.653z"/>
<path style="fill:#FF977B;" d="M245.221,126.653c0,65.483-53.085,118.568-118.568,118.568c-5.485,0-10.881-0.38-16.168-1.102
	c57.833-7.887,102.4-57.468,102.4-117.467c0-59.998-44.567-109.58-102.4-117.467c5.287-0.721,10.683-1.102,16.168-1.102
	C192.137,8.084,245.221,61.169,245.221,126.653z"/>
<path style="fill:#F95948;" d="M169.768,126.653c0,23.812-19.304,43.116-43.116,43.116s-43.116-19.304-43.116-43.116
	s19.304-43.116,43.116-43.116S169.768,102.841,169.768,126.653z"/>
<path style="fill:#D83C39;" d="M169.768,126.653c0,23.812-19.304,43.116-43.116,43.116c-3.722,0-7.334-0.472-10.779-1.358
	c18.596-4.786,32.337-21.667,32.337-41.758c0-20.09-13.741-36.971-32.337-41.758c3.445-0.887,7.057-1.358,10.779-1.358
	C150.465,83.537,169.768,102.841,169.768,126.653z"/>
<path d="M503.916,16.168h-64.674c-11.548,0-23.052,1.334-34.195,3.967c-4.345,1.026-7.037,5.38-6.01,9.725s5.383,7.033,9.726,6.009
	c9.927-2.343,20.181-3.532,30.48-3.532h56.589v56.589c0,72.809-59.234,132.042-132.042,132.042h-45.157l115.547-115.546
	c3.157-3.158,3.157-8.276,0-11.433c-3.157-3.156-8.276-3.156-11.432,0L307.2,209.536v-45.157c0-49.415,27.246-94.313,71.104-117.173
	c3.959-2.063,5.496-6.945,3.433-10.905c-2.064-3.959-6.947-5.498-10.905-3.432c-49.223,25.654-79.801,76.047-79.801,131.51v61.326
	L256,260.736l-42.231-42.232c24.338-23.095,39.536-55.731,39.536-91.852c0-34.552-13.909-65.918-36.42-88.792
	c-0.207-0.265-0.432-0.522-0.676-0.766c-0.244-0.245-0.5-0.47-0.766-0.676C192.569,13.908,161.205,0,126.653,0
	s-65.916,13.908-88.79,36.419c-0.266,0.206-0.522,0.431-0.766,0.676c-0.245,0.245-0.47,0.501-0.676,0.766
	C13.909,60.735,0,92.101,0,126.653s13.909,65.918,36.42,88.792c0.207,0.265,0.432,0.522,0.676,0.766
	c0.244,0.245,0.5,0.47,0.766,0.676c22.874,22.511,54.239,36.419,88.79,36.419c27.889,0,53.707-9.064,74.654-24.398l46.609,46.609
	v176.545l-26.947-26.947v-28.988c0-32.087-18.736-61.72-47.731-75.494c-4.032-1.912-8.855-0.201-10.771,3.834
	c-1.915,4.032-0.199,8.855,3.833,10.77c23.389,11.11,38.501,35.01,38.501,60.889v12.82l-50.873-50.873
	c-3.157-3.156-8.276-3.156-11.432,0c-3.157,3.158-3.157,8.276,0,11.433l50.873,50.872h-12.82c-37.146,0-67.368-30.221-67.368-67.368
	v-24.253h24.253c4.465,0,8.084-3.618,8.084-8.084s-3.62-8.084-8.084-8.084h-32.337c-4.465,0-8.084,3.618-8.084,8.084v32.337
	c0,46.062,37.475,83.537,83.537,83.537h28.989l38.38,38.379v28.989c0,4.466,3.62,8.084,8.084,8.084c4.465,0,8.084-3.618,8.084-8.084
	V275.516l38.38-38.38h61.326C445.513,237.137,512,170.649,512,88.926V24.253C512,19.787,508.38,16.168,503.916,16.168z
	 M134.737,236.845v-34.739c0-4.466-3.62-8.084-8.084-8.084s-8.084,3.618-8.084,8.084v34.739
	c-24.394-1.773-46.618-11.501-64.079-26.595l24.526-24.528c3.157-3.158,3.157-8.277,0-11.433c-3.157-3.156-8.276-3.156-11.432,0
	l-24.526,24.529c-16.747-19.374-26.889-44.609-26.889-72.165S26.31,73.862,43.057,54.489l24.526,24.529
	c3.156,3.156,8.275,3.156,11.432,0c3.157-3.157,3.157-8.276,0-11.433L54.49,43.055c19.372-16.745,44.607-26.887,72.163-26.887
	s52.791,10.142,72.163,26.887l-24.526,24.527c-3.157,3.158-3.157,8.277,0,11.433c3.157,3.156,8.276,3.156,11.432,0l24.526-24.529
	c16.747,19.374,26.889,44.609,26.889,72.165C237.137,184.856,191.899,232.692,134.737,236.845z M126.653,75.453
	c-28.231,0-51.2,22.969-51.2,51.2s22.969,51.2,51.2,51.2s51.2-22.969,51.2-51.2S154.884,75.453,126.653,75.453z M126.653,161.684
	c-19.316,0-35.032-15.715-35.032-35.032s15.716-35.032,35.032-35.032s35.032,15.715,35.032,35.032S145.968,161.684,126.653,161.684z
	"/>
<g>
</g>
<g>
</g>
<g>
</g>
<g>
</g>
<g>
</g>
<g>
</g>
<g>
</g>
<g>
</g>
<g>
</g>
<g>
</g>
<g>
</g>
<g>
</g>
<g>
</g>
<g>
</g>
<g>
</g>
</svg>
