<?xml version="1.0" encoding="iso-8859-1"?>
<!-- Generator: Adobe Illustrator 21.0.2, SVG Export Plug-In . SVG Version: 6.00 Build 0)  -->
<svg version="1.1" xmlns="http://www.w3.org/2000/svg" xmlns:xlink="http://www.w3.org/1999/xlink" x="0px" y="0px"
	 viewBox="0 0 64 64" style="enable-background:new 0 0 64 64;" xml:space="preserve">
<g id="crocus">
</g>
<g id="cactus">
</g>
<g id="anemone_1_">
</g>
<g id="twinflower">
</g>
<g id="_angelonia">
</g>
<g id="magnolia">
</g>
<g id="rosella">
</g>
<g id="amaryllis">
</g>
<g id="lily_calla">
</g>
<g id="cleome">
</g>
<g id="euphorbia">
</g>
<g id="rafflesia">
</g>
<g id="krisan">
</g>
<g id="orchid">
</g>
<g id="anemone">
</g>
<g id="gaura">
</g>
<g id="poppy">
</g>
<g id="bluestar">
</g>
<g id="hydrangea">
</g>
<g id="leadwort">
	<g>
		<path d="M57.082,23.8589c1.7764-3.5757,1.9375-6.9219,0.4356-9.5064c-1.3447-2.312-3.8545-3.6377-6.8887-3.6377
			c-1.1768,0-2.3838,0.1978-3.6045,0.5894c0.001-2.7339-0.8105-5.1221-2.3476-6.8364c-1.3799-1.5401-3.2637-2.3882-5.3047-2.3882
			c-1.7744,0-4.4405,0.6279-7.3721,3.4849c-2.9336-2.8575-5.5996-3.4849-7.374-3.4849c-2.041,0-3.9258,0.8481-5.3057,2.3882
			c-1.5361,1.7148-2.3476,4.1025-2.3467,6.8369c-1.2197-0.3921-2.4277-0.5899-3.6045-0.5899c-3.0332,0-5.5429,1.3257-6.8867,3.6368
			c-1.5029,2.5844-1.3418,5.9311,0.4356,9.5073c-4.0342,2.1562-6.2178,5.3921-5.8858,8.8017
			c0.3076,3.1582,2.6641,5.7813,6.2676,7.0918c-2.2051,2.9825-2.8359,6.3848-1.625,9.1538
			c1.4824,3.3887,5.3193,5.0743,10.2578,4.4205c1.0205,6.3193,4.8994,8.5942,8.041,8.5937c3.0284,0,5.9893-1.9121,8.0264-5.0923
			c2.0371,3.1807,4.998,5.0923,8.0264,5.0923c3.1406,0,7.0185-2.2759,8.0381-8.5937c4.9316,0.6552,8.7783-1.0313,10.2597-4.4224
			c1.21-2.769,0.5791-6.1704-1.6279-9.1519c3.6064-1.3105,5.9629-3.9336,6.2715-7.0922
			C63.2998,29.2505,61.1152,26.0151,57.082,23.8589z M39.3721,4.0796c1.4863,0,2.8056,0.5957,3.8154,1.7231
			c1.4238,1.5879,2.0654,4.0952,1.7598,6.8785c-0.0391,0.3559,0.1152,0.706,0.4052,0.9169c0.2901,0.212,0.67,0.2496,0.9971,0.105
			c1.4678-0.6557,2.9072-0.9883,4.2793-0.9883c2.3027,0,4.1826,0.9634,5.1592,2.6431c1.1982,2.0615,0.9062,5.0044-0.7715,8.1143
			l-15.8271,5.1396c-0.4307-0.9106-1.0264-1.7261-1.753-2.4082l3.8115-5.249c0.3243-0.4468,0.2247-1.0723-0.2216-1.3965
			c-0.4483-0.3252-1.0723-0.2241-1.3975,0.2217l-3.8057,5.2422c-0.8574-0.4717-1.8115-0.7847-2.8232-0.9126V7.4092
			C35.0596,5.2656,37.3096,4.0796,39.3721,4.0796z M32,37.9614c-3.2871,0-5.9609-2.6738-5.9609-5.9609S28.7129,26.0396,32,26.0396
			c3.2852,0,5.957,2.6738,5.957,5.9609S35.2852,37.9614,32,37.9614z M8.2119,15.3569c0.9756-1.6792,2.8555-2.6421,5.1572-2.6421
			c1.3721,0,2.8125,0.3326,4.2813,0.9883c0.3232,0.1446,0.706,0.107,0.9961-0.105c0.29-0.2114,0.4443-0.561,0.4053-0.9174
			c-0.3057-2.7828,0.3349-5.2896,1.7578-6.878c1.0107-1.1274,2.33-1.7231,3.8164-1.7231c2.0625,0,4.3135,1.186,6.374,3.3296v16.7002
			c-1.0137,0.1279-1.9697,0.4419-2.8291,0.915l-3.8076-5.2446c-0.3242-0.4458-0.9483-0.5469-1.3975-0.2217
			c-0.4463,0.3242-0.5459,0.9497-0.2217,1.3965l3.8135,5.2519c-0.7246,0.6812-1.3203,1.4952-1.75,2.4043L8.9834,23.4722
			C7.3057,20.3618,7.0127,17.4185,8.2119,15.3569z M7.5068,48.1045c-1.0537-2.4092-0.1884-5.5498,2.2578-8.1953
			c0.2403-0.2603,0.3252-0.6284,0.2227-0.9678c-0.1025-0.3393-0.3769-0.5991-0.7217-0.6826
			c-3.5869-0.8692-5.9795-3.0884-6.2431-5.792c-0.2627-2.6973,1.7402-5.3237,5.3505-7.0903l15.8106,5.1347
			c-0.0918,0.4829-0.1445,0.98-0.1445,1.4893c0,0.5112,0.0527,1.0093,0.1455,1.4936l-6.1934,1.9131
			c-0.5283,0.1631-0.8232,0.7232-0.6601,1.2505c0.1318,0.4297,0.5273,0.7056,0.955,0.7056c0.0977,0,0.1973-0.0147,0.295-0.0449
			l6.2285-1.9239c0.4101,0.8643,0.9658,1.6446,1.6435,2.3047L16.2383,51.2427C12.001,51.9546,8.668,50.7588,7.5068,48.1045z
			 M40.0264,59.9204c-2.7373,0-5.4678-2.1372-7.126-5.5771c-0.166-0.3462-0.5166-0.566-0.9004-0.566
			c-0.3838,0-0.7344,0.2198-0.9004,0.566c-1.6582,3.4399-4.3887,5.5771-7.126,5.5771c-3.2246,0.0005-5.5517-2.8535-6.1416-7.4687
			l10.2188-13.5489c0.8896,0.5118,1.8867,0.855,2.9492,0.9888v6.3643c0,0.5522,0.4473,1,1,1c0.5527,0,1-0.4478,1-1v-6.3643
			c1.0625-0.1343,2.0586-0.4775,2.9492-0.9893l10.2149,13.5494C45.5762,57.0669,43.25,59.9204,40.0264,59.9204z M54.7305,38.2588
			c-0.3448,0.083-0.6192,0.3433-0.7217,0.6826c-0.1025,0.3394-0.0176,0.708,0.2226,0.9683
			c2.4473,2.6445,3.3135,5.7841,2.2608,8.1933c-1.1611,2.6533-4.4873,3.8516-8.7344,3.1397L37.5459,37.6978
			c0.8496-0.8277,1.5098-1.8443,1.9238-2.98l6.2207,1.9194c0.0987,0.0303,0.1973,0.0449,0.295,0.0449
			c0.4277,0,0.8232-0.2763,0.955-0.7055c0.1631-0.5279-0.1328-1.0879-0.6601-1.2505l-6.3623-1.9629
			c0.0244-0.2515,0.039-0.5054,0.039-0.7627c0-0.5093-0.0527-1.0054-0.1445-1.4883l15.8145-5.1357
			c3.6103,1.7666,5.6132,4.3925,5.3496,7.0893C60.7129,35.1699,58.3193,37.3896,54.7305,38.2588z"/>
		<path d="M32,30.9805c-0.5527,0-1,0.4477-1,1v0.02c0,0.5522,0.4473,0.9897,1,0.9897c0.5527,0,1-0.4575,1-1.0097
			C33,31.4282,32.5527,30.9805,32,30.9805z"/>
		<path d="M28.3965,30.9805c-0.5527,0-1,0.4477-1,1v0.02c0,0.5522,0.4473,0.9897,1,0.9897s1-0.4575,1-1.0097
			C29.3965,31.4282,28.9492,30.9805,28.3965,30.9805z"/>
		<path d="M35.6035,30.9805c-0.5527,0-1,0.4477-1,1v0.02c0,0.5522,0.4473,0.9897,1,0.9897c0.5528,0,1-0.4575,1-1.0097
			C36.6035,31.4282,36.1563,30.9805,35.6035,30.9805z"/>
		<path d="M30.1543,29.9375c0.5527,0,1-0.46,1-1.0122c0-0.5523-0.4473-1-1-1c-0.5527,0-1,0.4477-1,1v0.0239
			C29.1543,29.5015,29.6016,29.9375,30.1543,29.9375z"/>
		<path d="M33.7568,29.915c0.5528,0,1-0.4585,1-1.0107c0-0.5522-0.4472-1-1-1c-0.5527,0-1,0.4478-1,1v0.021
			C32.7568,29.4775,33.2041,29.915,33.7568,29.915z"/>
		<path d="M30.1543,33.8813c-0.5527,0-1,0.4478-1,1v0.0201c0,0.5522,0.4473,0.9902,1,0.9902c0.5527,0,1-0.458,1-1.0103
			C31.1543,34.3291,30.707,33.8813,30.1543,33.8813z"/>
		<path d="M33.7568,33.9014c-0.5527,0-1,0.4477-1,1v0.021c0,0.5522,0.4473,0.9897,1,0.9897c0.5528,0,1-0.4585,1-1.0107
			C34.7568,34.3491,34.3096,33.9014,33.7568,33.9014z"/>
	</g>
</g>
<g id="anthurium">
</g>
<g id="blossom">
</g>
<g id="lily">
</g>
<g id="tulip">
</g>
<g id="sunflower">
</g>
<g id="jasmine">
</g>
<g id="bell">
</g>
<g id="rose">
</g>
<g id="zinnia">
</g>
<g id="buttercup">
</g>
</svg>
