<?xml version="1.0" encoding="iso-8859-1"?>
<!-- Generator: Adobe Illustrator 21.0.2, SVG Export Plug-In . SVG Version: 6.00 Build 0)  -->
<svg version="1.1" xmlns="http://www.w3.org/2000/svg" xmlns:xlink="http://www.w3.org/1999/xlink" x="0px" y="0px"
	 viewBox="0 0 64 64" style="enable-background:new 0 0 64 64;" xml:space="preserve">
<g id="crocus">
</g>
<g id="cactus">
</g>
<g id="anemone_1_">
</g>
<g id="twinflower">
</g>
<g id="_angelonia">
</g>
<g id="magnolia">
</g>
<g id="rosella">
</g>
<g id="amaryllis">
</g>
<g id="lily_calla">
</g>
<g id="cleome">
</g>
<g id="euphorbia">
</g>
<g id="rafflesia">
</g>
<g id="krisan">
</g>
<g id="orchid">
</g>
<g id="anemone">
</g>
<g id="gaura">
</g>
<g id="poppy">
</g>
<g id="bluestar">
</g>
<g id="hydrangea">
	<g>
		<path d="M52.6279,37.604C59.082,35.7349,62.9697,29.0767,63,23.7197c0.001-0.2588-0.0977-0.5083-0.2764-0.6958
			c-3.6943-3.873-11.0898-6.0459-17.1562-2.9316c-2.7207,1.7495-6.3506,5.6699-9.082,8.7812
			c1.9414-3.7871,4.3154-8.7363,4.9609-12.0493c0.6475-6.6865-4.1045-12.7578-9.0723-14.7641c-0.2402-0.0967-0.5078-0.0967-0.748,0
			c-4.9678,2.0063-9.7197,8.0776-9.0586,14.8598c0.499,2.5542,2.0478,6.2866,4.957,11.9668
			c-2.7334-3.1142-6.376-7.0473-9.1767-8.8428c-5.9795-3.0688-13.376-0.8925-17.0713,2.98C1.0977,23.2114,0.999,23.4609,1,23.7197
			c0.0303,5.357,3.918,12.0152,10.4658,13.9068c1.2149,0.228,2.7461,0.3159,4.4033,0.3159c2.6914,0,5.712-0.2315,8.253-0.4712
			c-5.0479,2.6699-8.2715,4.7256-10.1143,6.4839c-4.3935,5.082-4.0283,12.7832-1.1377,17.2925
			c0.1397,0.2183,0.3584,0.3735,0.6104,0.4336c0.9306,0.2207,1.9297,0.332,2.9638,0.332c4.7569,0,10.2393-2.3555,13.0225-7.2153
			c0.9297-2.064,1.7422-5.3873,2.5332-10.3487c0.792,4.9624,1.6084,8.2935,2.5781,10.4351
			c2.7432,4.7871,8.2149,7.1289,12.9707,7.1289c1.0352,0,2.0381-0.1108,2.9698-0.332c0.2529-0.0601,0.4716-0.2153,0.6113-0.4336
			c2.8896-4.5074,3.2539-12.2076-1.2051-17.3628c-1.7754-1.689-4.9961-3.7412-10.0459-6.4131
			c2.5127,0.2363,5.4961,0.4643,8.1846,0.4643C49.7705,37.936,51.3574,37.8442,52.6279,37.604z M32,41.5942
			c-3.291,0-5.9687-2.6757-5.9687-5.9643c0-3.291,2.6777-5.9688,5.9687-5.9688s5.9688,2.6778,5.9688,5.9688
			C37.9688,38.9185,35.291,41.5942,32,41.5942z M32,4.0757c4.0645,1.8511,7.9893,7.0425,7.4697,12.4599
			c-0.5937,3.0289-2.9453,7.8863-4.8427,11.5796c-0.5206-0.1826-1.0645-0.3134-1.627-0.3842v-9.0328c0-0.5522-0.4473-1-1-1
			c-0.5527,0-1,0.4478-1,1v9.0328c-0.5635,0.0708-1.1064,0.2016-1.627,0.3842c-1.8994-3.6958-4.2509-8.5498-4.8291-11.4834
			C24.0107,11.1211,27.9355,5.9268,32,4.0757z M11.9287,35.6831c-5.3193-1.5405-8.6982-7.1064-8.917-11.5669
			c3.2178-3.0918,9.4912-4.8213,14.3389-2.3418c2.5439,1.6362,6.0898,5.4859,8.748,8.5195
			c-0.3359,0.3711-0.6357,0.7725-0.8974,1.2017l-8.6201-2.979c-0.5196-0.1802-1.0909,0.0967-1.2715,0.6187
			c-0.1807,0.5219,0.0967,1.0913,0.6191,1.2719l8.4453,2.9185c-0.206,0.6811-0.3203,1.4009-0.3349,2.145
			C20.043,35.8501,14.8135,36.2202,11.9287,35.6831z M27.6875,53.8896c-2.7559,4.8042-8.9658,6.772-13.3457,5.9307
			c-2.2441-3.8608-2.4434-10.3667,1.1123-14.4863c1.6074-1.5293,4.7295-3.5108,9.4824-6.0313
			c0.3584,0.6851,0.8115,1.3106,1.3448,1.8609l-5.9112,6.7724c-0.3633,0.4161-0.3203,1.0479,0.0957,1.4112
			c0.1895,0.1655,0.4238,0.2465,0.6572,0.2465c0.2784,0,0.5557-0.1157,0.753-0.3422l5.9687-6.8384
			c0.7032,0.4311,1.4756,0.7563,2.2989,0.9541C29.3516,48.5107,28.5342,51.9971,27.6875,53.8896z M49.6582,59.8203
			c-4.3838,0.8408-10.5898-1.123-13.3008-5.8437c-0.8896-1.9746-1.709-5.4654-2.501-10.6094
			c0.8233-0.1973,1.5957-0.5225,2.2979-0.9541l5.9668,6.8384c0.1982,0.2265,0.4756,0.3422,0.7539,0.3422
			c0.2334,0,0.4678-0.081,0.6572-0.2465c0.416-0.3633,0.459-0.9947,0.0967-1.4112l-5.9101-6.7729
			c0.5332-0.5498,0.9863-1.1753,1.3447-1.8599c4.7549,2.522,7.873,4.4995,9.415,5.96
			C52.0986,49.4536,51.9014,55.9609,49.6582,59.8203z M39.9609,35.4702c-0.0146-0.7436-0.1289-1.4634-0.3349-2.1445l8.4453-2.9185
			c0.5225-0.1806,0.7998-0.75,0.6191-1.2719c-0.1816-0.5225-0.7529-0.7989-1.2715-0.6187l-8.6201,2.979
			c-0.2617-0.4297-0.5625-0.8315-0.8984-1.2026c2.6572-3.0323,6.1963-6.8775,8.6641-8.4698
			c4.9316-2.5278,11.206-0.7983,14.4238,2.293c-0.2188,4.4605-3.5947,10.0254-8.8233,11.5444
			C49.1943,36.2192,43.957,35.8491,39.9609,35.4702z"/>
		<path d="M32,34.6299c-0.5527,0-1,0.4477-1,1v0.0205c0,0.5522,0.4473,0.9897,1,0.9897c0.5527,0,1-0.458,1-1.0102
			C33,35.0776,32.5527,34.6299,32,34.6299z"/>
		<path d="M28.2998,34.6299c-0.5527,0-1,0.4477-1,1v0.0205c0,0.5522,0.4473,0.9897,1,0.9897s1-0.458,1-1.0102
			C29.2998,35.0776,28.8525,34.6299,28.2998,34.6299z"/>
		<path d="M35.7021,34.6299c-0.5527,0-1,0.4477-1,1v0.0205c0,0.5522,0.4473,0.9897,1,0.9897c0.5528,0,1-0.458,1-1.0102
			C36.7021,35.0776,36.2549,34.6299,35.7021,34.6299z"/>
		<path d="M33.8125,33.4736c0.5527,0,1-0.458,1-1.0102c0-0.5523-0.4473-1-1-1s-1,0.4477-1,1v0.021
			C32.8125,33.0366,33.2598,33.4736,33.8125,33.4736z"/>
		<path d="M30.1279,33.4951c0.5528,0,1-0.4585,1-1.0107c0-0.5523-0.4472-1-1-1c-0.5527,0-1,0.4477-1,1v0.021
			C29.1279,33.0576,29.5752,33.4951,30.1279,33.4951z"/>
		<path d="M33.8125,37.4873c-0.5527,0-1,0.4478-1,1v0.0215c0,0.5522,0.4473,0.9892,1,0.9892s1-0.4584,1-1.0107
			C34.8125,37.9351,34.3652,37.4873,33.8125,37.4873z"/>
		<path d="M30.1279,37.4873c-0.5527,0-1,0.4478-1,1v0.0215c0,0.5522,0.4473,0.9892,1,0.9892c0.5528,0,1-0.4584,1-1.0107
			C31.1279,37.9351,30.6807,37.4873,30.1279,37.4873z"/>
	</g>
</g>
<g id="leadwort">
</g>
<g id="anthurium">
</g>
<g id="blossom">
</g>
<g id="lily">
</g>
<g id="tulip">
</g>
<g id="sunflower">
</g>
<g id="jasmine">
</g>
<g id="bell">
</g>
<g id="rose">
</g>
<g id="zinnia">
</g>
<g id="buttercup">
</g>
</svg>
