<?xml version="1.0" encoding="iso-8859-1"?>
<!-- Generator: Adobe Illustrator 21.0.2, SVG Export Plug-In . SVG Version: 6.00 Build 0)  -->
<svg version="1.1" xmlns="http://www.w3.org/2000/svg" xmlns:xlink="http://www.w3.org/1999/xlink" x="0px" y="0px"
	 viewBox="0 0 64 64" style="enable-background:new 0 0 64 64;" xml:space="preserve">
<g id="crocus">
</g>
<g id="cactus">
</g>
<g id="anemone_1_">
</g>
<g id="twinflower">
</g>
<g id="_angelonia">
</g>
<g id="magnolia">
</g>
<g id="rosella">
</g>
<g id="amaryllis">
	<path d="M59.2736,46.4545c0.4766-4.978-2.4943-11.5231-8.3927-13.9077c-0.7713-0.228-1.7435-0.4154-2.864-0.5695
		c2.8033-3.206,6.1328-9.2697,8.6247-13.8114l0.7432-1.3525c0.3664-0.6629-0.1973-1.5623-0.9648-1.4785l-1.5059,0.1328
		c-4.6776,0.4088-10.7764,0.9437-14.9591,2.0117c0.3654-0.9893,0.5965-1.8317,0.8038-2.8701
		C41.417,8.3389,37.001,2.7979,32.3516,1.0635c-0.2266-0.084-0.4727-0.085-0.6992-0.001
		c-4.6514,1.7344-9.0693,7.2754-8.3975,13.6416c0.1981,0.9751,0.4247,1.7916,0.786,2.7646
		c-4.1343-1.0531-10.26-1.5906-14.955-2.0009L7.5801,15.335c-0.7652-0.0737-1.3346,0.8096-0.9648,1.4785l0.7432,1.3525
		c2.4794,4.519,5.7883,10.5444,8.6376,13.8112c-1.1367,0.1574-2.1356,0.3527-2.9687,0.6019
		c-5.8068,2.3533-8.7775,8.8984-8.3009,13.8754c0.0222,0.2513,0.1559,0.5237,0.3478,0.6851
		c2.2295,1.8975,5.5781,3.1318,9.042,3.1318c2.4561,0,4.9707-0.6211,7.1836-2.0664c0.711-0.5695,1.5114-1.3636,2.3989-2.3539
		c1.03,2.9577,6.4056,14.8948,7.4409,16.6557c0.3784,0.6441,1.3472,0.6432,1.7246-0.001c0.8466-1.4438,6.3198-13.444,7.4286-16.6659
		c0.8995,1.0022,1.7208,1.8133,2.4864,2.4227c2.166,1.4121,4.6426,2.0205,7.0723,2.0205c3.4648,0,6.835-1.2373,9.0742-3.1436
		C59.1166,46.9749,59.2512,46.7082,59.2736,46.4545z M32.0029,37c-2.3779-0.0029-4.3125-1.9395-4.3125-4.3154
		c0-2.3672,1.923-4.2945,4.2915-4.3094c0.0016,0,0.0033,0.0005,0.0049,0.0006c0.0025,0,0.0048,0.0012,0.0073,0.0012
		c0.0003,0,0.0007-0.0001,0.001-0.0001s0.0007,0.0001,0.001,0.0001c0.0025,0,0.0048-0.0012,0.0073-0.0012
		c0.0037-0.0001,0.0073-0.0013,0.011-0.0014c2.3692,0.0109,4.2952,1.9404,4.2952,4.3102C36.3096,35.0605,34.377,36.9971,32.0029,37z
		 M18.1689,31.3916c-2.6771-2.6044-6.3813-9.3111-8.899-13.9003c5.2221,0.4572,12.8417,1.147,16.2154,2.5116
		c2.259,1.1794,4.1429,3.571,5.1886,6.5149c-1.2367,0.2673-2.3384,0.8973-3.1904,1.7726l-6.5646-4.557
		c-0.4541-0.3164-1.0762-0.2012-1.3916,0.251c-0.3154,0.4541-0.2031,1.0771,0.251,1.3916l6.5563,4.5513
		c-0.4084,0.8345-0.6442,1.7679-0.6442,2.7573c0,0.3063,0.0294,0.6053,0.0719,0.9002
		C22.8735,33.7457,20.1358,32.9587,18.1689,31.3916z M38.2377,33.5854c0.0425-0.2951,0.0719-0.5943,0.0719-0.9009
		c0-0.9894-0.2357-1.9229-0.6439-2.7575l6.556-4.5511c0.4541-0.3145,0.5664-0.9375,0.251-1.3916
		c-0.3145-0.4521-0.9375-0.5674-1.3916-0.251l-6.5638,4.5565c-0.8542-0.8779-1.9592-1.5094-3.1999-1.7751
		c1.0451-2.9388,2.9236-5.325,5.1104-6.4718c3.4587-1.4037,11.0801-2.0944,16.3023-2.5516
		c-2.5177,4.5892-6.2204,11.2946-8.8257,13.8358C43.8717,32.9522,41.1255,33.7473,38.2377,33.5854z M32.002,3.0762
		c3.7275,1.5879,7.3008,6.2441,6.7822,11.2295c-0.2655,1.3082-0.6005,2.325-1.3221,4.0009c-1.7365,0.9409-3.2697,2.455-4.4614,4.331
		l-0.0026-8.8436c0-0.5527-0.4482-1-1-1c-0.5527,0-1,0.4482-1,1l0.0026,8.862c-1.179-1.8574-2.703-3.3629-4.4515-4.3306
		c-0.7292-1.6837-1.066-2.698-1.3196-3.9249C24.6973,9.3223,28.2715,4.6631,32.002,3.0762z M20.1289,46.5869
		c-4.2716,2.7859-10.1738,1.8011-13.4324-0.7183c-0.2056-4.1155,2.3552-9.5205,6.991-11.4037
		c1.0604-0.3137,2.5559-0.5518,4.4215-0.7125c1.6947,1.0208,3.6688,1.6453,5.7617,1.812l-9.2271,4.5353
		c-0.4951,0.2432-0.6992,0.8428-0.4561,1.3389c0.1738,0.3535,0.5293,0.5586,0.8984,0.5586c0.1475,0,0.2979-0.0332,0.4404-0.1025
		l10.2044-5.0157c-1.2213,1.8759-1.9737,3.9534-2.1808,6.0682C22.1718,44.6388,20.9938,45.8881,20.1289,46.5869z M38.502,44.9277
		c-0.2087,0.986-4.4796,10.6768-6.5007,14.8728c-2.0219-4.1902-6.2907-13.8641-6.4895-14.7751
		c-0.2495-2.5851,0.5808-5.3171,2.2878-7.6458c0.8813,0.7902,1.9828,1.3348,3.2024,1.5319v7.985c0,0.5527,0.4473,1,1,1s1-0.4473,1-1
		v-7.9849c1.2182-0.1968,2.3187-0.7414,3.1993-1.5313C37.9079,39.7078,38.7392,42.4296,38.502,44.9277z M43.9502,46.6445
		c-0.9384-0.7523-2.1157-1.9996-3.4894-3.6846c-0.2037-2.0994-0.9581-4.1893-2.1907-6.0805l10.2025,5.0151
		c0.1426,0.0693,0.293,0.1025,0.4404,0.1025c0.3691,0,0.7246-0.2051,0.8984-0.5586c0.2432-0.4961,0.0391-1.0957-0.4561-1.3389
		l-9.2283-4.5363c2.0717-0.1671,4.0346-0.788,5.7457-1.8128c1.8749,0.1606,3.3722,0.398,4.3488,0.6821
		c4.7238,1.9135,7.2874,7.3196,7.0818,11.436C54.0449,48.3881,48.1452,49.3748,43.9502,46.6445z"/>
</g>
<g id="lily_calla">
</g>
<g id="cleome">
</g>
<g id="euphorbia">
</g>
<g id="rafflesia">
</g>
<g id="krisan">
</g>
<g id="orchid">
</g>
<g id="anemone">
</g>
<g id="gaura">
</g>
<g id="poppy">
</g>
<g id="bluestar">
</g>
<g id="hydrangea">
</g>
<g id="leadwort">
</g>
<g id="anthurium">
</g>
<g id="blossom">
</g>
<g id="lily">
</g>
<g id="tulip">
</g>
<g id="sunflower">
</g>
<g id="jasmine">
</g>
<g id="bell">
</g>
<g id="rose">
</g>
<g id="zinnia">
</g>
<g id="buttercup">
</g>
</svg>
